<svg xmlns="http://www.w3.org/2000/svg" fill="none" viewBox="0 0 58 37"><rect width="58" height="37" fill="#006FCF" rx="3"/><path fill="#fff" d="M.39 17.5c.688 0 1.381-.006 2.07.004.178 0 .279-.063.337-.231.12-.332.26-.655.39-.982.048-.125.115-.192.264-.188.385.01.77.01 1.155 0 .16-.004.231.068.28.203.13.336.269.669.399 1.005.053.14.14.207.289.193.072-.005.144 0 .216 0h20.914c.082 0 .159-.005.24 0 .15.005.217-.063.213-.216-.005-.366 0-.737 0-1.17.279.346.544.62.75.938.236.357.53.472.963.467 1.66-.029 3.321-.01 4.982-.01.332 0 .332 0 .332-.336v-.583c.067.034.116.053.159.082.693.506 1.468.78 2.325.8 1.227.023 2.454.023 3.677.043.188.004.274-.077.332-.236.125-.332.265-.655.385-.982.048-.135.13-.183.27-.178.375.005.755.01 1.13 0 .164-.005.246.062.3.211.124.337.26.674.413.997.039.086.169.183.26.183 1.781.01 3.562.005 5.343.01.178 0 .236-.078.236-.251-.01-.414-.005-.833-.005-1.319.289.448.558.833.79 1.237.144.26.327.342.62.337 1.083-.014 2.166-.01 3.25-.005.225 0 .307-.062.307-.298-.005-2.85-.01-5.694 0-8.544 0-.236-.072-.293-.303-.293-1.14.01-2.277.005-3.417.005h-.26V9.87a.235.235 0 00-.053.02c-.222-.347-.472-.68-.66-1.04-.192-.37-.447-.477-.857-.467-1.058.034-2.117.02-3.176.005-.217 0-.275.067-.27.274.01.78.005 1.555.005 2.392-.048-.091-.077-.14-.101-.192-.322-.751-.645-1.502-.963-2.253-.062-.154-.14-.221-.317-.221a455.724 455.724 0 00-6.787-.01c-.876.01-1.68.298-2.397.814-.053.038-.101.077-.154.115-.015.01-.03.014-.082.039 0-.246-.014-.472.005-.698.02-.227-.068-.284-.289-.28-2.604.005-5.213.005-7.817.005-4.178 0-8.36 0-12.538-.005-.231 0-.337.068-.41.284-.178.554-.38 1.098-.592 1.704-.178-.51-.341-.958-.495-1.405-.203-.578-.203-.578-.819-.578-1.275 0-2.55.005-3.826-.005-.25-.004-.308.077-.303.313.014.766.004 1.536-.03 2.31-.298-.702-.6-1.405-.9-2.108-.211-.505-.211-.505-.77-.505-.986 0-1.973.005-2.96-.005-.211-.005-.303.077-.385.265C1.43 10.125.79 11.613.154 13.1a.24.24 0 01-.091.11.86.86 0 00-.063.111v4.226c.039 0 .077-.004.116-.004.043-.044.125-.044.274-.044zm46.02-7.947c.568.01 1.14.01 1.709 0 .168-.005.26.067.346.202.78 1.222 1.57 2.44 2.354 3.658a.905.905 0 00.255.274c.005-.082.014-.163.014-.245 0-1.194.01-2.393-.005-3.586-.004-.25.078-.318.313-.303.376.019.756.01 1.132.004.154-.004.211.058.211.212a1345.78 1345.78 0 000 6.354c0 .144-.053.197-.197.197-.563-.005-1.122.005-1.685-.01-.091-.004-.212-.096-.27-.182-.818-1.266-1.626-2.537-2.44-3.803-.067-.106-.14-.202-.211-.308-.02.01-.044.014-.063.024v.26c0 1.242-.005 2.488.005 3.73 0 .236-.072.303-.299.294-.39-.02-.784-.01-1.179 0-.168.005-.221-.058-.221-.222a1380.5 1380.5 0 000-6.305c-.01-.188.053-.245.23-.245zm-5.69.235c.078-.178.169-.24.357-.235.587.01 1.17.01 1.757 0 .149 0 .23.043.293.187.915 2.142 1.834 4.284 2.748 6.426.015.034.02.077.039.15-.602 0-1.17.004-1.738-.01-.067 0-.163-.092-.197-.164a20.25 20.25 0 01-.419-1.02c-.058-.145-.13-.212-.298-.207-.905.01-1.815.01-2.72 0-.154 0-.23.048-.284.192-.125.337-.264.67-.394 1.006-.053.144-.135.212-.304.207-.524-.01-1.054-.005-1.626-.005.144-.346.27-.654.4-.958a689.259 689.259 0 002.386-5.569zm-6.377 1.223c.534-.924 1.376-1.372 2.411-1.44.689-.043 1.382-.009 2.07-.018.188-.005.26.052.25.245-.01.347-.01.688 0 1.035.005.178-.053.24-.235.236-.492-.01-.978.004-1.469-.005-1.424-.029-1.91 1.03-1.805 2.137.053.544.227 1.035.718 1.348.327.212.693.279 1.078.264.135-.004.27 0 .467 0-.236.51-.443.968-.66 1.415-.024.044-.12.082-.183.078-1.53-.058-2.787-.79-3.042-2.638-.125-.92-.081-1.824.4-2.657zM31.56 9.553c.4.01.804.01 1.203 0 .178-.005.236.057.236.235-.005 1.06-.005 2.118-.005 3.177 0 1.025-.005 2.055.005 3.08 0 .212-.058.28-.27.275a19.32 19.32 0 00-1.179 0c-.154.005-.212-.053-.212-.207.005-2.108.005-4.216 0-6.325-.005-.173.053-.235.222-.235zm-7.061.216c0-.173.072-.216.23-.216 1.276.004 2.552-.005 3.822.014 1.064.02 1.887.804 1.988 1.848.111 1.175-.428 1.998-1.55 2.35-.052.014-.1.038-.202.081.732.823 1.44 1.617 2.186 2.46h-1.03c-.049 0-.097-.01-.145 0-.674.134-1.112-.164-1.497-.698-.404-.564-.89-1.074-1.338-1.608-.106-.125-.606-.212-.736-.11-.053.043-.068.153-.073.23-.004.64-.01 1.28 0 1.926.005.197-.053.27-.26.26-.39-.015-.784-.01-1.179 0-.168.004-.226-.053-.226-.222.015-2.098.015-4.207.01-6.315zm-6.277-.216c1.66.004 3.321.004 4.977 0 .193 0 .274.043.265.255-.015.317-.015.64 0 .962.01.212-.072.255-.265.25-1.097-.004-2.195.005-3.297-.01-.231-.004-.298.083-.284.295.01.192.014.385 0 .577-.014.212.053.294.284.289 1.059-.014 2.118 0 3.177-.01.24-.005.303.072.293.303a8.463 8.463 0 000 .915c.01.193-.057.246-.25.246-1.069-.01-2.132.004-3.2-.01-.232 0-.318.067-.304.298.014.222.01.448 0 .674-.005.178.063.231.24.231 1.098-.005 2.195.005 3.298-.01.245-.004.322.063.308.309-.02.327-.01.66-.005.986.005.154-.048.212-.207.212a893.66 893.66 0 00-5.073 0c-.197 0-.222-.087-.217-.25.005-1.045 0-2.084 0-3.129 0-1.044.005-2.084-.005-3.128 0-.193.068-.255.265-.255zm-9.93.62c0-.616 0-.616.616-.616.612 0 1.218.01 1.83-.004.206-.005.293.067.356.26.438 1.27.885 2.536 1.333 3.802.024.067.053.13.101.26.063-.135.11-.217.14-.308.433-1.237.87-2.474 1.294-3.716.077-.231.188-.303.429-.298.707.014 1.41.01 2.118.004.197-.004.26.058.26.26a1305.42 1305.42 0 000 6.258c0 .187-.053.255-.246.245a15.45 15.45 0 00-1.155 0c-.202.01-.26-.063-.26-.26.005-1.468.005-2.936.005-4.404v-.274l-.092-.015-.462 1.276c-.409 1.155-.823 2.305-1.227 3.46-.058.164-.145.222-.318.217a11.83 11.83 0 00-1.01 0c-.17.005-.241-.058-.294-.207a1565.07 1565.07 0 00-1.555-4.39c-.043-.12-.096-.24-.144-.36l-.077.014v4.625c0 .308 0 .313-.323.313-.351 0-.707-.01-1.059.005-.212.01-.274-.063-.27-.27.015-1.963.01-3.918.01-5.877zm-8.08 5.772c.876-2.05 1.761-4.101 2.633-6.157.077-.178.163-.24.356-.235.577.01 1.155.01 1.733 0 .163 0 .26.043.327.206.914 2.142 1.829 4.28 2.748 6.421.015.03.015.063.024.135-.596 0-1.174.005-1.752-.005-.062 0-.149-.086-.178-.154a32.531 32.531 0 01-.428-1.044c-.053-.14-.13-.193-.284-.193-.915.005-1.83.005-2.744 0-.144 0-.216.053-.264.183-.135.352-.27.703-.424 1.045-.034.072-.125.163-.193.163-.553.015-1.102.01-1.694.01.053-.15.092-.265.14-.375zm57.783 4.293c-.105-.005-.216-.005-.327-.005-.053.029-.14.029-.298.029-11.384 0-22.767 0-34.15-.005-.246 0-.395.072-.535.27-.25.36-.534.698-.823 1.073-.318-.409-.601-.794-.91-1.165a.467.467 0 00-.313-.163c-3.056-.01-6.112-.005-9.169-.01-.173 0-.236.043-.236.226.005 2.888.005 5.776 0 8.664 0 .236.12.236.284.236h4.79c1.395 0 2.791-.005 4.187.005a.515.515 0 00.462-.231c.27-.376.559-.741.862-1.136.289.375.573.727.832 1.097.14.198.294.275.54.275 1.699-.01 3.403-.005 5.102-.005.346 0 .356-.005.356-.347 0-.505.005-1.01-.005-1.516-.005-.188.058-.245.25-.25.645-.02 1.295-.048 1.94-.101.217-.02.428-.12.664-.193.005.087.01.164.01.24 0 .636.005 1.267-.005 1.902-.005.202.077.265.27.265a372.97 372.97 0 013.345 0c.197 0 .274-.072.27-.27-.01-.346-.005-.688-.005-1.102.178.217.351.37.462.563.375.645.895.833 1.656.828 5.982-.038 11.97-.02 17.953-.02.775 0 1.511-.148 2.176-.572.024-.014.053-.024.11-.053v.01a2 2 0 01.26-.342c-.005-2.739-.005-5.468-.005-8.197zm-43.873 2.975c.02.207.02.418 0 .625-.014.207.072.26.265.26 1.025-.005 2.05-.005 3.08-.005.063 0 .14-.019.188.005.068.034.169.106.169.164.014.36.005.722.01 1.083 0 .197-.135.164-.25.164-1.05 0-2.104.01-3.154-.005-.236-.005-.332.048-.313.303.025.284.005.573.005.9h1.02c.853 0 1.7.005 2.552-.005.178 0 .24.053.236.231-.01.352-.01.708 0 1.06.005.153-.049.211-.207.211a895.352 895.352 0 00-5.078 0c-.174 0-.217-.063-.217-.226.005-2.099.005-4.202 0-6.3 0-.165.043-.227.217-.227 1.694.005 3.383.005 5.078 0 .159 0 .212.058.207.212-.01.337-.015.674 0 1.01.01.203-.072.241-.255.241-1.083-.005-2.166.005-3.25-.01-.23 0-.332.053-.303.309zm9.459 4.981c-.097-.005-.212-.1-.28-.183-.442-.567-.876-1.145-1.314-1.718-.048-.063-.1-.12-.168-.197-.087.106-.169.192-.24.284-.42.548-.829 1.102-1.252 1.646-.063.077-.169.168-.26.173-.616.015-1.232.01-1.882.01.038-.068.058-.116.091-.154.804-1.006 1.608-2.017 2.421-3.018.13-.159.116-.255-.005-.41-.813-1-1.612-2.011-2.42-3.017a1.256 1.256 0 01-.092-.13c.096-.01.159-.02.221-.02.54 0 1.074.005 1.613-.004.183-.005.298.062.404.202.424.563.857 1.121 1.285 1.68.048.062.101.115.174.197.356-.457.688-.895 1.025-1.333.14-.183.293-.361.423-.554.097-.144.207-.192.38-.192.583.01 1.165.005 1.81.005-.303.38-.568.717-.837 1.049-.563.698-1.122 1.4-1.694 2.094-.12.144-.111.24.004.39.814 1.01 1.622 2.026 2.431 3.041.034.044.063.087.12.174-.697-.005-1.328 0-1.959-.015zm6.3-2.252c-.683.053-1.377.033-2.065.048h-.356v1.3c0 .23-.01.466.005.697.01.174-.063.222-.226.217-.4-.01-.804-.015-1.204 0-.212.01-.27-.063-.27-.274.01-1.988.005-3.981.005-5.969 0-.515 0-.515.506-.515h3.393c1.324 0 2.2.857 2.234 2.185.024 1.285-.766 2.205-2.022 2.31zm7.932 2.262c-.702 0-.698-.005-1.15-.554-.457-.558-.934-1.102-1.391-1.655-.125-.15-.255-.222-.453-.203-.125.015-.255.005-.409.005-.004.101-.014.183-.014.27 0 .626-.005 1.251.005 1.877.005.193-.044.274-.25.265-.4-.015-.804-.01-1.204 0-.168.005-.245-.034-.245-.226.005-2.104.005-4.202 0-6.306 0-.163.048-.226.221-.226 1.276.005 2.551-.01 3.827.01 1.14.014 1.997.876 2.036 2.016.038 1.107-.491 1.853-1.56 2.19-.053.015-.1.039-.207.082.737.828 1.44 1.622 2.18 2.455h-1.386zm7.22-1.252a14.2 14.2 0 000 1.011c.005.174-.043.241-.226.241-1.685-.005-3.37-.005-5.054 0-.168 0-.221-.058-.221-.221.005-2.104.005-4.202 0-6.306 0-.163.043-.226.216-.226 1.695.005 3.384.005 5.078 0 .16 0 .212.058.207.212-.01.337-.014.674 0 1.01.01.203-.072.241-.255.241-1.092-.005-2.18 0-3.273-.005-.212 0-.308.049-.289.28.02.216.02.433 0 .65-.014.206.073.26.265.26 1.01-.006 2.022-.006 3.032-.006.058 0 .111.005.169 0 .178-.019.265.044.255.241-.014.313-.014.626 0 .939.01.202-.072.24-.255.24-1.044-.005-2.084-.005-3.129-.005-.332 0-.332 0-.332.342v.852h.708c.948 0 1.891.005 2.84-.005.197 0 .274.049.264.256zm6.609-.572c-.173 1.097-.814 1.68-1.925 1.771-.78.063-1.57.038-2.354.048-.424.005-.852-.005-1.276.005-.154.005-.216-.053-.211-.207.004-.347.01-.688 0-1.035-.005-.197.053-.265.26-.26 1.092.01 2.18.005 3.273.005.433 0 .697-.366.563-.765-.077-.231-.299-.38-.583-.38-.568-.005-1.14.01-1.708-.005-.52-.015-1.026-.12-1.42-.496-.636-.602-.727-1.353-.51-2.147.22-.799.803-1.227 1.588-1.396a2.89 2.89 0 01.573-.053c1.107-.005 2.214 0 3.32 0h.3c-.217.486-.41.934-.622 1.367-.028.058-.163.082-.245.087-.89.005-1.781 0-2.672.005-.447 0-.693.265-.654.669.034.303.289.5.683.505.602.01 1.204-.014 1.805.015 1.45.057 2.003 1.083 1.815 2.267zm5.502 1.338c-.438.351-.963.471-1.507.476-1.097.015-2.2 0-3.297.01-.193 0-.255-.053-.246-.245a11.83 11.83 0 000-1.011c-.01-.188.053-.25.246-.25 1.107.009 2.214.004 3.321.004a.534.534 0 00.51-.298c.111-.207.116-.448-.053-.607a.878.878 0 00-.515-.236c-.558-.028-1.121.005-1.684-.014-.684-.024-1.3-.212-1.704-.818-.828-1.228-.092-2.975 1.362-3.23.197-.034.4-.048.597-.053 1.107-.005 2.214 0 3.32 0h.28c-.212.472-.39.9-.592 1.319-.034.072-.173.135-.265.135-.832.01-1.67.005-2.503.005h-.216c-.356.014-.621.245-.636.563-.014.303.212.568.564.601.284.03.577.01.866.015.481.014.968-.01 1.44.062.895.135 1.4.737 1.467 1.637.048.775-.14 1.44-.755 1.935z"/><path fill="#fff" d="M34.391 24.344c0-.448-.004-.857.01-1.261 0-.058.106-.164.164-.164.606-.01 1.217-.024 1.824 0 .428.015.746.366.731.741-.019.42-.327.684-.798.684-.636.005-1.266 0-1.93 0zm-7.144-11.889c-.298 0-.592-.005-.89.005-.16.004-.207-.058-.202-.212.01-.342.004-.688 0-1.03-.005-.145.048-.202.192-.197.602.004 1.199-.005 1.8.004.429.01.742.332.742.727 0 .4-.313.693-.756.703-.294.005-.587 0-.886 0zm-22.246.996H3.066c.318-.784.621-1.54.93-2.296.023 0 .047-.004.072-.004.303.75.61 1.506.933 2.3zm37.875 0h-1.935c.318-.784.621-1.54.93-2.296.023-.004.047-.004.076-.01.304.761.607 1.522.93 2.306zM27.46 24.488c0-.496-.005-.953.005-1.41 0-.058.091-.159.144-.159.636-.01 1.266-.029 1.902.005.447.024.75.409.717.837-.039.458-.342.732-.814.732-.64 0-1.28-.005-1.954-.005z"/></svg>