<svg xmlns="http://www.w3.org/2000/svg" fill="none" viewBox="0 0 58 37"><path fill="#fff" stroke="#020202" d="M55 .5H3A2.5 2.5 0 00.5 3v31A2.5 2.5 0 003 36.5h52a2.5 2.5 0 002.5-2.5V3A2.5 2.5 0 0055 .5z"/><path fill="#F48120" d="M57 21S42.166 31.356 15 36h40a2 2 0 002-2V21z"/><path fill="#231F20" d="M52.084 14.363c0-1.404-.968-2.208-2.658-2.208H47.26v7.496h1.458V16.64h.191l2.017 3.012h1.8l-2.358-3.162c1.104-.232 1.717-.981 1.717-2.126zm-2.944 1.24h-.423v-2.276h.45c.913 0 1.404.382 1.404 1.117 0 .75-.49 1.16-1.431 1.16zm-41-3.462H6v7.497h2.14c1.131 0 1.95-.273 2.671-.86a3.75 3.75 0 001.364-2.875c-.014-2.222-1.663-3.762-4.035-3.762zm1.717 5.643c-.463.409-1.05.6-2.003.6h-.396v-4.962h.396c.94 0 1.513.164 2.003.6.505.45.805 1.145.805 1.867 0 .723-.3 1.445-.805 1.895zm4.443-5.643h-1.458v7.497h1.459V12.14zm3.572 2.876c-.872-.327-1.131-.545-1.131-.94 0-.478.463-.832 1.09-.832.436 0 .804.177 1.172.613l.764-.995a3.296 3.296 0 00-2.209-.831c-1.322 0-2.344.927-2.344 2.153 0 1.036.477 1.568 1.84 2.059.573.204.859.34 1.009.422.286.191.436.464.436.777 0 .613-.477 1.063-1.131 1.063-.695 0-1.254-.354-1.595-.995l-.94.913c.667.996 1.485 1.432 2.59 1.432 1.512 0 2.589-1.009 2.589-2.467.027-1.213-.477-1.759-2.14-2.372zm2.617.886c0 2.208 1.731 3.912 3.953 3.912.627 0 1.172-.123 1.826-.436V17.66c-.586.586-1.104.818-1.758.818-1.472 0-2.522-1.063-2.522-2.59 0-1.444 1.077-2.576 2.454-2.576.695 0 1.227.245 1.826.845V12.44c-.64-.327-1.172-.464-1.799-.464-2.194 0-3.98 1.745-3.98 3.926zm17.392 1.281l-2.003-5.043h-1.595l3.176 7.687h.79l3.23-7.687H39.9l-2.018 5.043zm4.267 2.454h4.143V18.37h-2.685v-2.017h2.59v-1.268h-2.59v-1.663h2.685v-1.281h-4.143v7.497z"/><path fill="url(#paint0_linear)" d="M30.753 19.91a3.994 3.994 0 100-7.987 3.994 3.994 0 000 7.987z"/><path fill="url(#paint1_linear)" d="M30.753 19.91a3.994 3.994 0 100-7.987 3.994 3.994 0 000 7.987z" opacity=".65"/><path fill="#231F20" d="M53.01 12.427c0-.136-.094-.204-.244-.204h-.218v.654h.163v-.259l.19.259h.192l-.218-.273c.081-.013.136-.081.136-.177zm-.272.096h-.027v-.178h.027c.082 0 .123.028.123.082 0 .068-.04.096-.123.096z"/><path fill="#231F20" d="M52.793 11.977a.576.576 0 00-.573.573c0 .313.26.572.573.572a.576.576 0 00.572-.572.576.576 0 00-.572-.573zm0 1.05a.471.471 0 01-.464-.477c0-.26.205-.477.464-.477.245 0 .45.218.45.477s-.205.477-.45.477z"/><defs><linearGradient id="paint0_linear" x1="32.794" x2="30.033" y1="19.113" y2="14.79" gradientUnits="userSpaceOnUse"><stop stop-color="#F89F20"/><stop offset=".25" stop-color="#F79A20"/><stop offset=".533" stop-color="#F68D20"/><stop offset=".62" stop-color="#F58720"/><stop offset=".723" stop-color="#F48120"/><stop offset="1" stop-color="#F37521"/></linearGradient><linearGradient id="paint1_linear" x1="32.358" x2="28.323" y1="19.054" y2="11.168" gradientUnits="userSpaceOnUse"><stop stop-color="#F58720"/><stop offset=".359" stop-color="#E16F27"/><stop offset=".703" stop-color="#D4602C"/><stop offset=".982" stop-color="#D05B2E"/></linearGradient></defs></svg>