<svg xmlns="http://www.w3.org/2000/svg" fill="none" viewBox="0 0 58 37"><path fill="#0F1822" d="M55 0H3a3 3 0 00-3 3v31a3 3 0 003 3h52a3 3 0 003-3V3a3 3 0 00-3-3z"/><path fill="#F26522" d="M35.774 6.685H22.682v23.529h13.092V6.685z"/><path fill="#E52423" d="M23.546 18.45c0-4.774 2.235-9.025 5.715-11.765a14.905 14.905 0 00-9.247-3.198C11.75 3.487 5.05 10.186 5.05 18.45c0 8.263 6.699 14.962 14.963 14.962 3.49 0 6.702-1.196 9.247-3.198-3.48-2.743-5.715-6.991-5.715-11.764z"/><path fill="#F99F1C" d="M52.043 27.718v-.483h.195v-.098h-.494v.098h.195v.483h.104zm.96 0v-.58h-.153l-.174.4-.174-.4h-.153v.58h.108v-.438l.163.379h.111l.164-.379v.438h.108zM38.51 3.487a14.908 14.908 0 00-9.248 3.198 14.938 14.938 0 015.715 11.765c0 4.773-2.235 9.021-5.715 11.76a14.904 14.904 0 009.247 3.199c8.264 0 14.963-6.7 14.963-14.963-.004-8.26-6.7-14.959-14.963-14.959z"/></svg>