<svg xmlns="http://www.w3.org/2000/svg" fill="none" viewBox="0 0 58 37"><path fill="#1A1F70" d="M55.093 37H2.907A2.895 2.895 0 010 34.093V3.178A2.895 2.895 0 012.907.271h52.186A2.895 2.895 0 0158 3.178v30.915C58 35.708 56.662 37 55.093 37z"/><path fill="#fff" d="M28.84 13.053l-2.4 11.166h-2.907l2.4-11.167h2.907zm12.135 7.244l1.522-4.2.877 4.2h-2.4zm3.23 3.922h2.676l-2.353-11.167h-2.446c-.554 0-1.015.324-1.246.831L36.5 24.219h3.045l.6-1.661h3.692l.369 1.66zm-7.521-3.645c0-2.954-4.06-3.092-4.06-4.43 0-.415.368-.83 1.245-.923.415-.046 1.569-.092 2.86.508l.508-2.353c-.692-.231-1.569-.508-2.722-.508-2.86 0-4.845 1.523-4.891 3.691 0 1.615 1.43 2.492 2.538 3.046 1.107.553 1.522.876 1.476 1.384 0 .738-.877 1.061-1.707 1.107-1.477 0-2.307-.415-2.953-.692l-.554 2.4c.692.323 1.938.6 3.23.6 3 0 4.983-1.477 5.03-3.83zm-11.997-7.522l-4.66 11.167H16.98l-2.307-8.906c-.138-.553-.277-.738-.692-.969-.692-.369-1.846-.738-2.86-.968l.091-.323h4.938c.646 0 1.2.415 1.338 1.153l1.2 6.46 2.998-7.614h3z"/></svg>